<?xml version="1.0" standalone="no"?>
<!DOCTYPE svg PUBLIC "-//W3C//DTD SVG 20010904//EN"
 "http://www.w3.org/TR/2001/REC-SVG-20010904/DTD/svg10.dtd">
<svg version="1.0" xmlns="http://www.w3.org/2000/svg"
 width="300.000000pt" height="300.000000pt" viewBox="0 0 300.000000 300.000000"
 preserveAspectRatio="xMidYMid meet">
<metadata>
Created by potrace 1.10, written by Peter Selinger 2001-2011
</metadata>
<g transform="translate(0.000000,300.000000) scale(0.050000,-0.050000)"
fill="#8b45ff" stroke="none">
<path d="M900 5400 l0 -300 -150 0 -150 0 0 -300 0 -300 -300 0 -300 0 0 -900
0 -900 150 0 150 0 0 -150 0 -150 300 0 300 0 0 -300 0 -300 300 0 300 0 0
-150 0 -150 -300 0 -300 0 0 -450 0 -450 450 0 450 0 0 300 0 300 450 0 450 0
0 300 0 300 300 0 300 0 0 -300 0 -300 450 0 450 0 0 -300 0 -300 450 0 450 0
0 450 0 450 -300 0 -300 0 0 150 0 150 300 0 300 0 0 300 0 300 300 0 300 0 0
150 0 150 150 0 150 0 0 900 0 900 -300 0 -300 0 0 300 0 300 -150 0 -150 0 0
300 0 300 -450 0 -450 0 0 -150 0 -150 -450 0 -450 0 0 -300 0 -300 -300 0
-300 0 0 300 0 300 -450 0 -450 0 0 150 0 150 -450 0 -450 0 0 -300z m600
-150 l0 -150 -150 0 -150 0 0 150 0 150 150 0 150 0 0 -150z m3300 0 l0 -150
-150 0 -150 0 0 150 0 150 150 0 150 0 0 -150z m-2400 -450 l0 -300 600 0 600
0 0 300 0 300 150 0 150 0 0 -300 0 -300 150 0 150 0 0 -150 0 -150 150 0 150
0 0 -150 0 -150 150 0 150 0 0 -450 0 -450 300 0 300 0 0 600 0 600 150 0 150
0 0 -600 0 -600 -150 0 -150 0 0 -150 0 -150 -300 0 -300 0 0 -300 0 -300
-300 0 -300 0 0 -300 0 -300 -300 0 -300 0 0 300 0 300 -600 0 -600 0 0 -300
0 -300 -300 0 -300 0 0 300 0 300 -300 0 -300 0 0 300 0 300 -300 0 -300 0 0
150 0 150 -150 0 -150 0 0 600 0 600 150 0 150 0 0 -600 0 -600 300 0 300 0 0
450 0 450 150 0 150 0 0 150 0 150 150 0 150 0 0 150 0 150 150 0 150 0 0 300
0 300 150 0 150 0 0 -300z m-900 -150 l0 -150 -150 0 -150 0 0 -150 0 -150
-150 0 -150 0 0 300 0 300 300 0 300 0 0 -150z m3600 -150 l0 -300 -150 0
-150 0 0 150 0 150 -150 0 -150 0 0 150 0 150 300 0 300 0 0 -300z m-3600
-3450 l0 -150 -150 0 -150 0 0 150 0 150 150 0 150 0 0 -150z m3300 0 l0 -150
-150 0 -150 0 0 150 0 150 150 0 150 0 0 -150z"/>
<path d="M1800 3150 l0 -450 300 0 300 0 0 450 0 450 -300 0 -300 0 0 -450z"/>
<path d="M3600 3150 l0 -450 300 0 300 0 0 450 0 450 -300 0 -300 0 0 -450z"/>
</g>
</svg>
